HIERARCHY
ROOT SimulationBone
{
	OFFSET 0.000000 0.000000 0.000000
	CHANNELS 6 Xposition Yposition Zposition Zrotation Yrotation Xrotation 
	JOINT Hips
	{
		OFFSET 0.000000 0.000000 0.000000
		CHANNELS 6 Xposition Yposition Zposition Zrotation Yrotation Xrotation 
		JOINT RightUpLeg
		{
			OFFSET 0.103461 1.857828 10.548504
			CHANNELS 3 Zrotation Yrotation Xrotation
			JOINT RightLeg
			{
				OFFSET 43.500008 -0.000031 0.000006
				CHANNELS 3 Zrotation Yrotation Xrotation
				JOINT RightFoot
				{
					OFFSET 42.372200 0.000019 -0.000010
					CHANNELS 3 Zrotation Yrotation Xrotation
					JOINT RightToe
					{
						OFFSET 17.299999 -0.000000 0.000002
						CHANNELS 3 Zrotation Yrotation Xrotation
						End Site
						{
							OFFSET 0.000000 0.000000 0.000000
						}
					}
				}
			}
		}
		JOINT LeftUpLeg
		{
			OFFSET 0.103457 1.857829 -10.548504
			CHANNELS 3 Zrotation Yrotation Xrotation
			JOINT LeftLeg
			{
				OFFSET 43.500046 -0.000019 0.000011
				CHANNELS 3 Zrotation Yrotation Xrotation
				JOINT LeftFoot
				{
					OFFSET 42.372261 0.000000 0.000008
					CHANNELS 3 Zrotation Yrotation Xrotation
					JOINT LeftToe
					{
						OFFSET 17.299990 -0.000006 0.000008
						CHANNELS 3 Zrotation Yrotation Xrotation
						End Site
						{
							OFFSET 0.000000 0.000000 0.000000
						}
					}
				}
			}
		}
		JOINT Spine
		{
			OFFSET 6.901969 -2.603727 -0.000006
			CHANNELS 3 Zrotation Yrotation Xrotation
			JOINT Spine1
			{
				OFFSET 12.588100 -0.000002 0.000002
				CHANNELS 3 Zrotation Yrotation Xrotation
				JOINT Spine2
				{
					OFFSET 12.343195 0.000004 0.000008
					CHANNELS 3 Zrotation Yrotation Xrotation
					JOINT Neck
					{
						OFFSET 25.832905 -0.000008 -0.000002
						CHANNELS 3 Zrotation Yrotation Xrotation
						JOINT Head
						{
							OFFSET 11.766608 0.000010 -0.000008
							CHANNELS 3 Zrotation Yrotation Xrotation
							End Site
							{
								OFFSET 0.000000 0.000000 0.000000
							}
						}
					}
					JOINT RightShoulder
					{
						OFFSET 19.745903 -1.480370 6.000106
						CHANNELS 3 Zrotation Yrotation Xrotation
						JOINT RightArm
						{
							OFFSET 11.284119 -0.000006 -0.000014
							CHANNELS 3 Zrotation Yrotation Xrotation
							JOINT RightForeArm
							{
								OFFSET 33.000050 0.000004 0.000026
								CHANNELS 3 Zrotation Yrotation Xrotation
								JOINT RightHand
								{
									OFFSET 25.200020 0.000017 0.000004
									CHANNELS 3 Zrotation Yrotation Xrotation
									End Site
									{
										OFFSET 0.000000 0.000000 0.000000
									}
								}
							}
						}
					}
					JOINT LeftShoulder
					{
						OFFSET 19.746099 -1.480375 -6.000082
						CHANNELS 3 Zrotation Yrotation Xrotation
						JOINT LeftArm
						{
							OFFSET 11.284140 -0.000015 -0.000008
							CHANNELS 3 Zrotation Yrotation Xrotation
							JOINT LeftForeArm
							{
								OFFSET 33.000084 0.000016 0.000002
								CHANNELS 3 Zrotation Yrotation Xrotation
								JOINT LeftHand
								{
									OFFSET 25.199783 0.000142 0.000437
									CHANNELS 3 Zrotation Yrotation Xrotation
									End Site
									{
										OFFSET 0.000000 0.000000 0.000000
									}
								}
							}
						}
					}
				}
			}
		}
	}
}
MOTION
Frames: 9
Frame Time: 0.016667
183.613451 0.000000 -14.779504 0.000000 95.149340 0.000000 1.424069 92.471970 -0.077045 94.981947 0.375847 -177.968381 -179.260200 -0.176502 -175.995916 -16.446213 -1.284455 -0.352057 82.825407 0.432423 0.638017 21.454562 0.003115 0.000018 -175.532843 0.091903 -176.921912 -9.958794 2.856685 3.793600 81.895005 -2.874645 -0.783908 21.454551 -0.003088 0.000001 7.152328 0.395872 -0.045734 4.291665 0.793189 -0.076894 3.973513 0.792591 -0.081686 17.017758 -4.442394 6.696328 -19.840349 -2.658798 8.137484 -178.724904 -71.413969 -2.662332 -11.950358 59.226945 31.834128 -27.683444 -17.122033 1.347957 8.922791 7.275119 14.078878 -153.015770 74.604848 29.081233 -16.868184 -60.716732 -21.333205 -25.901779 17.214085 -1.297418 1.048623 6.325984 4.375150 
183.763223 0.000000 -14.822167 0.000000 96.018377 0.000000 1.308602 92.476147 -0.127016 94.904334 0.346448 -178.369363 -179.427001 -0.170787 -175.673795 -16.398438 -1.345264 -0.261703 82.706109 0.373390 0.646565 21.454558 0.003106 0.000017 -175.614734 0.109400 -176.560481 -9.977339 2.855197 3.862177 81.914040 -2.925830 -0.804800 21.454553 -0.003093 0.000001 7.150552 0.400208 -0.087192 4.287793 0.803377 -0.159646 3.969659 0.802265 -0.164483 16.889295 -4.542912 6.752155 -19.929952 -2.706127 8.210763 -179.267393 -71.357560 -2.102805 -12.373470 60.041044 36.181778 -27.079437 -16.044940 1.270375 10.614675 4.485821 10.618402 -154.473390 74.633365 27.587868 -18.728888 -62.353853 -22.700624 -23.553915 15.670826 -1.157840 2.207007 4.193494 9.284519 
183.903742 0.000000 -14.836028 0.000000 96.877063 0.000000 1.210088 92.482323 -0.125949 94.830038 0.348903 -178.794381 -179.615342 -0.192900 -175.624873 -16.395461 -1.278402 -0.039210 82.601732 0.209821 0.609511 21.454557 0.003106 0.000017 -175.694718 0.040486 -176.175714 -9.963015 2.790988 3.901932 81.901166 -2.957728 -0.832118 21.454553 -0.003093 0.000001 7.163039 0.405458 -0.122813 4.312508 0.815203 -0.230588 3.994382 0.813661 -0.235501 16.674923 -4.672961 6.792451 -20.073890 -2.736812 8.257473 -179.942905 -71.328632 -1.406767 -11.247344 61.072455 37.760813 -27.043289 -16.317614 1.285449 11.209577 -0.274581 7.499838 -156.236491 74.593544 25.782950 -20.932241 -63.539527 -24.892219 -22.275999 13.820565 -1.027227 3.319121 2.403948 9.653432 
184.035037 0.000000 -14.822936 0.000000 97.725168 0.000000 1.124541 92.487017 -0.109541 94.770116 0.367932 -179.247913 -179.814444 -0.201888 -175.615767 -16.438421 -1.144380 0.177314 82.515544 0.040170 0.533374 21.454557 0.003109 0.000017 -175.783375 -0.058751 -175.800810 -9.962887 2.698887 3.925970 81.879213 -2.977386 -0.854970 21.454551 -0.003090 0.000001 7.191079 0.415137 -0.138107 4.368475 0.835179 -0.260604 4.050346 0.833458 -0.265651 16.382183 -4.846365 6.792301 -20.249161 -2.730986 8.242288 179.631082 -71.308073 -0.967757 -9.415758 61.958554 37.509387 -27.573029 -17.204663 1.346675 11.177397 -5.304295 5.391109 -158.080389 74.564614 23.894555 -22.834295 -64.425331 -27.198812 -21.750770 12.358551 -0.930845 4.066805 1.143244 7.573035 
184.157139 0.000000 -14.784741 0.000000 98.562478 0.000000 1.050145 92.486748 -0.113655 94.736302 0.388792 -179.734378 179.986522 -0.155296 -175.413383 -16.529280 -1.003810 0.249654 82.450607 -0.037044 0.424327 21.454558 0.003110 0.000017 -175.890458 -0.132198 -175.469103 -10.023981 2.613771 3.947527 81.871011 -2.991826 -0.862490 21.454551 -0.003086 0.000001 7.235966 0.432732 -0.118577 4.458383 0.869711 -0.220554 4.140243 0.868231 -0.225819 16.018810 -5.077342 6.727033 -20.432861 -2.669078 8.129713 179.837214 -71.279721 -1.179435 -7.743848 62.361094 36.322071 -28.670681 -17.969765 1.420065 10.711582 -8.811339 4.964858 -159.819896 74.632565 22.111279 -23.805464 -65.116317 -28.887075 -21.660951 11.979910 -0.901421 3.955296 0.483234 5.136581 
184.270078 0.000000 -14.723293 0.000000 99.388789 0.000000 0.987273 92.479052 -0.162447 94.730059 0.401927 179.756446 179.783221 -0.035659 -174.895848 -16.677177 -0.911183 0.114878 82.408929 0.027470 0.302357 21.454558 0.003105 0.000016 -176.026218 -0.143164 -175.220677 -10.175169 2.562937 3.993738 81.893218 -3.017602 -0.844296 21.454551 -0.003082 0.000002 7.295382 0.460106 -0.056785 4.577684 0.922129 -0.095482 4.259529 0.921396 -0.101061 15.611759 -5.357282 6.582525 -20.619792 -2.544405 7.902416 -179.140747 -71.234907 -2.231024 -6.856561 62.032343 35.043725 -30.272071 -18.096036 1.464274 10.005936 -9.477140 6.409823 -161.273736 74.848409 20.619065 -23.390841 -65.611552 -29.551658 -21.853509 13.021201 -0.968297 2.745859 0.487632 3.726782 
184.373882 0.000000 -14.640441 0.000000 100.203911 0.000000 0.937315 92.465530 -0.232912 94.709225 0.415823 179.293110 179.507111 0.068798 -174.385098 -16.916126 -0.894128 0.010931 82.390208 0.085922 0.243494 21.454558 0.003100 0.000015 -176.205644 -0.132706 -175.121952 -10.372719 2.543435 4.146945 81.937762 -3.109433 -0.791942 21.454553 -0.003082 0.000003 7.352478 0.492804 0.026420 4.692588 0.984197 0.072648 4.374426 0.984470 0.066701 15.263562 -5.584205 6.385005 -20.874305 -2.401181 7.616071 -177.899189 -71.214541 -3.509359 -6.534204 61.198814 34.285513 -32.079386 -17.941338 1.486671 9.549181 -8.086950 8.144727 -162.120905 75.104613 19.748559 -21.805649 -65.570558 -30.117510 -22.811254 14.387280 -1.070679 1.547268 1.483132 1.886421 
184.468583 0.000000 -14.538036 0.000000 101.007667 0.000000 0.898779 92.448089 -0.294940 94.636438 0.437196 178.944563 179.094372 0.076967 -174.215329 -17.276316 -0.947532 0.182285 82.391168 -0.018059 0.307365 21.454557 0.003102 0.000016 -176.435798 -0.144790 -175.150741 -10.569432 2.542028 4.437629 81.993503 -3.289066 -0.709311 21.454553 -0.003089 0.000001 7.392418 0.525954 0.105792 4.773245 1.047190 0.233032 4.455092 1.048427 0.226704 15.058015 -5.677778 6.165938 -21.237320 -2.269172 7.325413 -177.072975 -71.268804 -4.361138 -6.455563 60.160410 34.401351 -33.774743 -17.974225 1.523582 9.627343 -5.835753 8.735740 -162.079590 75.289953 19.788873 -19.598330 -64.712784 -31.426790 -24.875729 14.978189 -1.143615 1.308264 3.539507 -1.746861 
184.554209 0.000000 -14.417926 0.000000 101.799893 0.000000 0.863540 92.425797 -0.337355 94.539507 0.454789 178.723541 178.575132 0.048190 -174.328298 -17.749191 -0.968046 0.597109 82.396635 -0.278103 0.431376 21.454557 0.003108 0.000017 -176.685806 -0.154214 -174.905039 -10.776956 2.532383 4.633897 82.062605 -3.408065 -0.647277 21.454553 -0.003093 0.000000 7.423057 0.559012 0.166879 4.835218 1.110675 0.356803 4.517073 1.112659 0.350088 14.931398 -5.741606 5.944572 -21.589183 -2.068217 7.008308 -176.736623 -71.378602 -4.709056 -6.568509 59.000053 35.071084 -35.157629 -18.236853 1.574681 9.669871 -3.254819 8.878246 -161.399172 75.429443 20.483679 -17.639007 -63.380083 -33.039250 -27.202237 15.107581 -1.185307 1.328957 5.388131 -5.334870 
